<svg width="1024" height="1024" viewBox="0 0 1024 1024" fill="none" xmlns="http://www.w3.org/2000/svg">
<path d="M427.465 513.771L442.496 551.904L442.607 552.186L442.409 552.414C426.791 570.459 418.415 581.179 404.01 601.112C400.439 608.232 398.479 613.489 398.034 618.251C397.591 622.994 398.646 627.295 401.208 632.509C409.477 645.758 411.88 662.4 409.732 679.872C407.583 697.36 400.873 715.715 390.878 732.412C370.902 765.784 337.707 792.678 301.354 792.678H301.3L301.247 792.666C300.241 792.448 299.333 792.439 298.435 792.688C297.532 792.937 296.603 793.455 295.572 794.343C293.494 796.132 291.08 799.352 287.707 804.639L287.7 804.648C281.626 813.688 277.776 818.375 271.175 824.954L269.816 826.297C264.217 831.803 259.434 835.748 253.955 839.057C248.479 842.364 242.325 845.025 233.995 847.982L233.965 847.993L233.933 848C220.01 851.001 210.528 852.274 204.168 851.19C200.968 850.645 198.521 849.499 196.696 847.647C194.876 845.8 193.718 843.295 193.012 840.116L193 840.062V826.374L193.505 826.378C202.563 826.46 210.272 825.992 216.408 825.039C222.551 824.085 227.066 822.653 229.788 820.842C242.416 811.955 249.908 803.802 253.521 796.403C257.116 789.044 256.883 782.416 254.025 776.484C244.857 763.309 239.733 750.21 238.428 737C237.121 723.777 239.643 710.475 245.716 696.91C257.853 669.799 284.192 641.602 322.611 610.782L322.619 610.775C368.18 575.815 394.267 551.227 426.621 513.628L427.161 513L427.465 513.771ZM378.437 640.229C358.052 623.773 318.521 638.174 290.143 672.395C261.764 706.615 255.283 747.696 275.667 764.151C296.052 780.607 335.583 766.206 363.962 731.985C392.341 697.765 398.821 656.684 378.437 640.229Z" fill="white"/>
<path d="M366 792C393.45 768.141 405.319 752.187 419.5 718C737.5 750 792 503.5 528 508L525.498 468.02C743.649 476.739 841.336 304.992 626 294C631.275 280.946 633.878 273.516 637.844 260.511C866.993 267.656 860.404 423.033 669.5 489.5C914 571.5 752.5 833 366 792Z" fill="#F47C20"/>
<path d="M483.35 172C457.635 300.226 446.243 372.725 434 503.675C466.5 587 465.5 587 504.35 658V558.254C506.043 499.885 507.349 467.013 509.6 408.161L521.15 388.218L526.4 458.542C587.785 357.523 613.774 299.435 644 192.992C592.759 259.833 563.47 299.144 509.6 374.573C505.704 294.997 500.065 250.645 483.35 172Z" fill="white"/>
<circle cx="470.5" cy="499.5" r="13.5" fill="#F47C20"/>
<circle cx="792" cy="758" r="38" fill="#F47C20"/>
</svg>
